<svg width="349" height="18" viewBox="0 0 349 18" fill="none" xmlns="http://www.w3.org/2000/svg">
  <path d="M0.983765 9.18755V1.93955L7.25976 5.56355L13.5371 9.18755L7.25976 12.8115L0.983765 16.4355V9.18755Z" stroke="#666" stroke-width="1.33333" stroke-miterlimit="10"/>
  <path d="M38.0801 9.18755V1.93955L44.3561 5.56355L50.6334 9.18755L44.3561 12.8115L38.0801 16.4355V9.18755Z" stroke="#666" stroke-width="1.33333" stroke-miterlimit="10"/>
  <path d="M75.1764 9.18755V1.93955L81.4524 5.56355L87.7284 9.18755L81.4524 12.8115L75.1764 16.4355V9.18755Z" stroke="#666" stroke-width="1.33333" stroke-miterlimit="10"/>
  <path d="M112.272 9.18755V1.93955L118.549 5.56355L124.825 9.18755L118.549 12.8115L112.272 16.4355V9.18755Z" stroke="#666" stroke-width="1.33333" stroke-miterlimit="10"/>
  <path d="M149.369 9.18755V1.93955L155.645 5.56355L161.922 9.18755L155.645 12.8115L149.369 16.4355V9.18755Z" stroke="#666" stroke-width="1.33333" stroke-miterlimit="10"/>
  <path d="M186.465 9.18755V1.93955L192.741 5.56355L199.017 9.18755L192.741 12.8115L186.465 16.4355V9.18755Z" stroke="#666" stroke-width="1.33333" stroke-miterlimit="10"/>
  <path d="M223.561 9.18755V1.93955L229.838 5.56355L236.114 9.18755L229.838 12.8115L223.561 16.4355V9.18755Z" stroke="#666" stroke-width="1.33333" stroke-miterlimit="10"/>
  <path d="M260.657 9.18755V1.93955L266.933 5.56355L273.21 9.18755L266.933 12.8115L260.657 16.4355V9.18755Z" stroke="#666" stroke-width="1.33333" stroke-miterlimit="10"/>
  <path d="M297.753 9.18755V1.93955L304.029 5.56355L310.307 9.18755L304.029 12.8115L297.753 16.4355V9.18755Z" stroke="#666" stroke-width="1.33333" stroke-miterlimit="10"/>
  <path d="M334.85 9.18755V1.93955L341.126 5.56355L347.403 9.18755L341.126 12.8115L334.85 16.4355V9.18755Z" stroke="#666" stroke-width="1.33333" stroke-miterlimit="10"/>
</svg>  