<svg id="Layer_1" data-name="Layer 1" xmlns="http://www.w3.org/2000/svg" xmlns:xlink="http://www.w3.org/1999/xlink" viewBox="0 0 168.65 235.95"><defs><style>.cls-1{fill:none;}.cls-2{clip-path:url(#clip-path);}.cls-3{fill:#00a3ea;}</style><clipPath id="clip-path"><rect class="cls-1" width="168.65" height="235.95"/></clipPath></defs><title>01</title><g class="cls-2"><path class="cls-3" d="M113.57-.19h-.29l-18,15.54L87.1-.19h-.22l8.21,15.58L53.52,11.71l-6.45-.58L66.8-.19h-.38L46.91,11,50-.19h-.19L46.7,11.07,23.16-.19h-.44L46.5,11.18l-5.43,1.66-18.6,5.69L18-.19h-.19l4.53,18.78L-7.65,26.94,15-.19h-.25L-8,27l-3.77.68v.2l3.5-.64-3.5,3.09h0v.25h0L-8,27.3l3.56,23.11-7.31-2.17v.2h0l7.2,2.13-7.2,4.32v.23l7-4.2-.14.17.51-.38v0l.09-.11.09,0v-.09l.13-.07h0l38.3-28.36.31.2h0L61.67,35.94l.36.23-1.14-1.75L47,11.32l48.3,4.27.17,0,0-.09L113.57-.19ZM34,22.08-3.71,50,22.43,18.76ZM46.36,11.43,34.19,21.92l-.31-.2.18.18L22.73,18.65l9.42-2.88ZM-7.81,27.18l29.94-8.35L-4.23,50.32l-2-13.06ZM61.4,35.54,34.37,22l0,0h0L46.06,11.93l.68-.59L60.83,34.67Z"/><path class="cls-3" d="M95.83,240.74h.29l18-15.53,8.19,15.53h.21l-8.2-15.57,41.57,3.68,6.45.57L142.6,240.74H143l19.5-11.19-3.1,11.19h.2l3.12-11.25,23.53,11.25h.44L162.9,229.37l5.42-1.66L186.93,222l4.51,18.72h.2L187.11,222,217,213.62l-22.66,27.12h.24l22.74-27.21,3.77-.68v-.19l-3.5.63,3.5-3.08h0V210h0l-3.75,3.31-3.57-23.11,7.32,2.16v-.19h0l-7.2-2.14,7.2-4.32v-.22l-7,4.2.15-.18-.52.38v-.05l-.1.11-.09,0,0,.08-.13.08h0l-38.3,28.35-.31-.19h0l-27.14-13.58-.37-.23,1.14,1.74,13.95,23.11L114.15,225l-.17,0,0,.09-18.19,15.7Zm79.57-22.26,37.71-27.92L187,221.8ZM163,229.13l12.16-10.5.32.2-.18-.17,11.32,3.25-9.42,2.88Zm54.16-15.75-29.94,8.35,26.37-31.49,2,13.06ZM148,205l27,13.5-.05,0h0l-11.67,10.07-.67.58-14.1-23.32Z"/></g></svg>